<mxfile host="app.diagrams.net" modified="2022-12-01T18:11:27.364Z" agent="5.0 (Windows)" etag="WoofPFas6SfSNsEnYwZW" version="20.6.0" type="github" pages="2">
  <diagram id="L6IGqSFNvoj9cD-TAHoM" name="Clock">
    <mxGraphModel dx="1177" dy="442" grid="1" gridSize="10" guides="1" tooltips="1" connect="1" arrows="1" fold="1" page="1" pageScale="1" pageWidth="1654" pageHeight="1169" math="0" shadow="0">
      <root>
        <mxCell id="0" />
        <mxCell id="1" parent="0" />
        <mxCell id="TyK7Ge3iMBHYcfCyNtOP-1" value="1 Hz Clock Using clock divider" style="whiteSpace=wrap;html=1;aspect=fixed;" parent="1" vertex="1">
          <mxGeometry x="220" y="120" width="80" height="80" as="geometry" />
        </mxCell>
        <mxCell id="TyK7Ge3iMBHYcfCyNtOP-2" value="Clock" style="endArrow=classic;html=1;rounded=0;" parent="1" edge="1">
          <mxGeometry width="50" height="50" relative="1" as="geometry">
            <mxPoint x="150" y="140" as="sourcePoint" />
            <mxPoint x="220" y="140" as="targetPoint" />
          </mxGeometry>
        </mxCell>
        <mxCell id="TyK7Ge3iMBHYcfCyNtOP-4" value="4-bit counter" style="whiteSpace=wrap;html=1;aspect=fixed;" parent="1" vertex="1">
          <mxGeometry x="360" y="120" width="80" height="80" as="geometry" />
        </mxCell>
        <mxCell id="TyK7Ge3iMBHYcfCyNtOP-5" value="Load" style="text;html=1;strokeColor=none;fillColor=none;align=center;verticalAlign=middle;whiteSpace=wrap;rounded=0;" parent="1" vertex="1">
          <mxGeometry x="370" y="180" width="60" height="30" as="geometry" />
        </mxCell>
        <mxCell id="TyK7Ge3iMBHYcfCyNtOP-6" value="en" style="text;html=1;strokeColor=none;fillColor=none;align=center;verticalAlign=middle;whiteSpace=wrap;rounded=0;" parent="1" vertex="1">
          <mxGeometry x="370" y="110" width="60" height="30" as="geometry" />
        </mxCell>
        <mxCell id="TyK7Ge3iMBHYcfCyNtOP-7" value="" style="endArrow=classic;html=1;rounded=0;" parent="1" edge="1">
          <mxGeometry width="50" height="50" relative="1" as="geometry">
            <mxPoint x="280" y="40" as="sourcePoint" />
            <mxPoint x="350" y="40" as="targetPoint" />
          </mxGeometry>
        </mxCell>
        <mxCell id="TyK7Ge3iMBHYcfCyNtOP-8" value="0000" style="endArrow=classic;html=1;rounded=0;" parent="1" edge="1">
          <mxGeometry width="50" height="50" relative="1" as="geometry">
            <mxPoint x="320" y="130" as="sourcePoint" />
            <mxPoint x="360" y="130" as="targetPoint" />
          </mxGeometry>
        </mxCell>
        <mxCell id="TyK7Ge3iMBHYcfCyNtOP-9" value="" style="triangle;whiteSpace=wrap;html=1;" parent="1" vertex="1">
          <mxGeometry x="360" y="170" width="20" height="20" as="geometry" />
        </mxCell>
        <mxCell id="TyK7Ge3iMBHYcfCyNtOP-35" value="4-bit counter" style="whiteSpace=wrap;html=1;aspect=fixed;" parent="1" vertex="1">
          <mxGeometry x="360" y="340" width="80" height="80" as="geometry" />
        </mxCell>
        <mxCell id="TyK7Ge3iMBHYcfCyNtOP-36" value="Load" style="text;html=1;strokeColor=none;fillColor=none;align=center;verticalAlign=middle;whiteSpace=wrap;rounded=0;" parent="1" vertex="1">
          <mxGeometry x="370" y="400" width="60" height="30" as="geometry" />
        </mxCell>
        <mxCell id="TyK7Ge3iMBHYcfCyNtOP-37" value="en" style="text;html=1;strokeColor=none;fillColor=none;align=center;verticalAlign=middle;whiteSpace=wrap;rounded=0;" parent="1" vertex="1">
          <mxGeometry x="370" y="330" width="60" height="30" as="geometry" />
        </mxCell>
        <mxCell id="TyK7Ge3iMBHYcfCyNtOP-38" value="0000" style="endArrow=classic;html=1;rounded=0;entryX=0.25;entryY=1;entryDx=0;entryDy=0;" parent="1" edge="1" target="fFUhXE5g0Uw-F75FcCPk-2">
          <mxGeometry width="50" height="50" relative="1" as="geometry">
            <mxPoint x="210" y="345" as="sourcePoint" />
            <mxPoint x="250" y="349.5" as="targetPoint" />
          </mxGeometry>
        </mxCell>
        <mxCell id="TyK7Ge3iMBHYcfCyNtOP-39" value="" style="triangle;whiteSpace=wrap;html=1;" parent="1" vertex="1">
          <mxGeometry x="360" y="390" width="20" height="20" as="geometry" />
        </mxCell>
        <mxCell id="TyK7Ge3iMBHYcfCyNtOP-40" value="4-bit counter" style="whiteSpace=wrap;html=1;aspect=fixed;" parent="1" vertex="1">
          <mxGeometry x="600" y="120" width="80" height="80" as="geometry" />
        </mxCell>
        <mxCell id="TyK7Ge3iMBHYcfCyNtOP-41" value="Load" style="text;html=1;strokeColor=none;fillColor=none;align=center;verticalAlign=middle;whiteSpace=wrap;rounded=0;" parent="1" vertex="1">
          <mxGeometry x="610" y="180" width="60" height="20" as="geometry" />
        </mxCell>
        <mxCell id="TyK7Ge3iMBHYcfCyNtOP-42" value="en" style="text;html=1;strokeColor=none;fillColor=none;align=center;verticalAlign=middle;whiteSpace=wrap;rounded=0;" parent="1" vertex="1">
          <mxGeometry x="610" y="110" width="60" height="30" as="geometry" />
        </mxCell>
        <mxCell id="TyK7Ge3iMBHYcfCyNtOP-43" value="0000" style="endArrow=classic;html=1;rounded=0;" parent="1" edge="1">
          <mxGeometry width="50" height="50" relative="1" as="geometry">
            <mxPoint x="560" y="130" as="sourcePoint" />
            <mxPoint x="600" y="130" as="targetPoint" />
          </mxGeometry>
        </mxCell>
        <mxCell id="TyK7Ge3iMBHYcfCyNtOP-44" value="" style="triangle;whiteSpace=wrap;html=1;" parent="1" vertex="1">
          <mxGeometry x="600" y="170" width="20" height="20" as="geometry" />
        </mxCell>
        <mxCell id="TyK7Ge3iMBHYcfCyNtOP-45" value="4-bit counter" style="whiteSpace=wrap;html=1;aspect=fixed;" parent="1" vertex="1">
          <mxGeometry x="600" y="340" width="80" height="80" as="geometry" />
        </mxCell>
        <mxCell id="TyK7Ge3iMBHYcfCyNtOP-46" value="Load" style="text;html=1;strokeColor=none;fillColor=none;align=center;verticalAlign=middle;whiteSpace=wrap;rounded=0;" parent="1" vertex="1">
          <mxGeometry x="610" y="400" width="60" height="20" as="geometry" />
        </mxCell>
        <mxCell id="TyK7Ge3iMBHYcfCyNtOP-47" value="en" style="text;html=1;strokeColor=none;fillColor=none;align=center;verticalAlign=middle;whiteSpace=wrap;rounded=0;" parent="1" vertex="1">
          <mxGeometry x="610" y="340" width="60" height="20" as="geometry" />
        </mxCell>
        <mxCell id="TyK7Ge3iMBHYcfCyNtOP-49" value="" style="triangle;whiteSpace=wrap;html=1;" parent="1" vertex="1">
          <mxGeometry x="600" y="390" width="20" height="20" as="geometry" />
        </mxCell>
        <mxCell id="TyK7Ge3iMBHYcfCyNtOP-50" value="4-bit counter" style="whiteSpace=wrap;html=1;aspect=fixed;" parent="1" vertex="1">
          <mxGeometry x="600" y="550" width="80" height="80" as="geometry" />
        </mxCell>
        <mxCell id="TyK7Ge3iMBHYcfCyNtOP-51" value="Load" style="text;html=1;strokeColor=none;fillColor=none;align=center;verticalAlign=middle;whiteSpace=wrap;rounded=0;" parent="1" vertex="1">
          <mxGeometry x="610" y="610" width="60" height="30" as="geometry" />
        </mxCell>
        <mxCell id="TyK7Ge3iMBHYcfCyNtOP-52" value="en" style="text;html=1;strokeColor=none;fillColor=none;align=center;verticalAlign=middle;whiteSpace=wrap;rounded=0;" parent="1" vertex="1">
          <mxGeometry x="610" y="550" width="60" height="20" as="geometry" />
        </mxCell>
        <mxCell id="TyK7Ge3iMBHYcfCyNtOP-54" value="" style="triangle;whiteSpace=wrap;html=1;" parent="1" vertex="1">
          <mxGeometry x="600" y="600" width="20" height="20" as="geometry" />
        </mxCell>
        <mxCell id="TyK7Ge3iMBHYcfCyNtOP-55" value="4-bit counter" style="whiteSpace=wrap;html=1;aspect=fixed;" parent="1" vertex="1">
          <mxGeometry x="360" y="560" width="80" height="80" as="geometry" />
        </mxCell>
        <mxCell id="TyK7Ge3iMBHYcfCyNtOP-56" value="Load" style="text;html=1;strokeColor=none;fillColor=none;align=center;verticalAlign=middle;whiteSpace=wrap;rounded=0;" parent="1" vertex="1">
          <mxGeometry x="370" y="620" width="60" height="20" as="geometry" />
        </mxCell>
        <mxCell id="TyK7Ge3iMBHYcfCyNtOP-57" value="en" style="text;html=1;strokeColor=none;fillColor=none;align=center;verticalAlign=middle;whiteSpace=wrap;rounded=0;" parent="1" vertex="1">
          <mxGeometry x="370" y="560" width="60" height="20" as="geometry" />
        </mxCell>
        <mxCell id="TyK7Ge3iMBHYcfCyNtOP-59" value="" style="triangle;whiteSpace=wrap;html=1;" parent="1" vertex="1">
          <mxGeometry x="360" y="610" width="20" height="20" as="geometry" />
        </mxCell>
        <mxCell id="TyK7Ge3iMBHYcfCyNtOP-60" value="1" style="endArrow=classic;html=1;rounded=0;" parent="1" edge="1">
          <mxGeometry width="50" height="50" relative="1" as="geometry">
            <mxPoint x="401" y="80" as="sourcePoint" />
            <mxPoint x="401.25" y="120" as="targetPoint" />
          </mxGeometry>
        </mxCell>
        <mxCell id="TyK7Ge3iMBHYcfCyNtOP-64" value="" style="endArrow=classic;html=1;rounded=0;" parent="1" edge="1">
          <mxGeometry width="50" height="50" relative="1" as="geometry">
            <mxPoint x="290" y="50" as="sourcePoint" />
            <mxPoint x="330" y="50" as="targetPoint" />
          </mxGeometry>
        </mxCell>
        <mxCell id="TyK7Ge3iMBHYcfCyNtOP-65" value="S0" style="endArrow=classic;html=1;rounded=0;" parent="1" edge="1">
          <mxGeometry width="50" height="50" relative="1" as="geometry">
            <mxPoint x="440" y="130" as="sourcePoint" />
            <mxPoint x="480" y="130" as="targetPoint" />
          </mxGeometry>
        </mxCell>
        <mxCell id="TyK7Ge3iMBHYcfCyNtOP-66" value="S1" style="endArrow=classic;html=1;rounded=0;" parent="1" edge="1">
          <mxGeometry width="50" height="50" relative="1" as="geometry">
            <mxPoint x="440" y="150" as="sourcePoint" />
            <mxPoint x="480" y="150" as="targetPoint" />
          </mxGeometry>
        </mxCell>
        <mxCell id="TyK7Ge3iMBHYcfCyNtOP-67" value="S2" style="endArrow=classic;html=1;rounded=0;" parent="1" edge="1">
          <mxGeometry width="50" height="50" relative="1" as="geometry">
            <mxPoint x="440" y="170" as="sourcePoint" />
            <mxPoint x="480" y="170" as="targetPoint" />
          </mxGeometry>
        </mxCell>
        <mxCell id="TyK7Ge3iMBHYcfCyNtOP-68" value="S3" style="endArrow=classic;html=1;rounded=0;" parent="1" edge="1">
          <mxGeometry width="50" height="50" relative="1" as="geometry">
            <mxPoint x="440" y="189" as="sourcePoint" />
            <mxPoint x="480" y="189" as="targetPoint" />
          </mxGeometry>
        </mxCell>
        <mxCell id="TyK7Ge3iMBHYcfCyNtOP-69" value="TS0" style="endArrow=classic;html=1;rounded=0;" parent="1" edge="1">
          <mxGeometry width="50" height="50" relative="1" as="geometry">
            <mxPoint x="680" y="130" as="sourcePoint" />
            <mxPoint x="720" y="130" as="targetPoint" />
          </mxGeometry>
        </mxCell>
        <mxCell id="TyK7Ge3iMBHYcfCyNtOP-70" value="TS1" style="endArrow=classic;html=1;rounded=0;entryX=0;entryY=0.25;entryDx=0;entryDy=0;entryPerimeter=0;" parent="1" target="TyK7Ge3iMBHYcfCyNtOP-115" edge="1">
          <mxGeometry width="50" height="50" relative="1" as="geometry">
            <mxPoint x="680" y="148" as="sourcePoint" />
            <mxPoint x="720" y="150" as="targetPoint" />
          </mxGeometry>
        </mxCell>
        <mxCell id="TyK7Ge3iMBHYcfCyNtOP-71" value="TS2" style="endArrow=classic;html=1;rounded=0;" parent="1" edge="1">
          <mxGeometry width="50" height="50" relative="1" as="geometry">
            <mxPoint x="680" y="170" as="sourcePoint" />
            <mxPoint x="720" y="170" as="targetPoint" />
          </mxGeometry>
        </mxCell>
        <mxCell id="TyK7Ge3iMBHYcfCyNtOP-72" value="TS3" style="endArrow=classic;html=1;rounded=0;" parent="1" edge="1">
          <mxGeometry width="50" height="50" relative="1" as="geometry">
            <mxPoint x="680" y="189" as="sourcePoint" />
            <mxPoint x="720" y="189" as="targetPoint" />
          </mxGeometry>
        </mxCell>
        <mxCell id="TyK7Ge3iMBHYcfCyNtOP-73" value="TM0" style="endArrow=classic;html=1;rounded=0;" parent="1" edge="1">
          <mxGeometry width="50" height="50" relative="1" as="geometry">
            <mxPoint x="680" y="350" as="sourcePoint" />
            <mxPoint x="720" y="350" as="targetPoint" />
          </mxGeometry>
        </mxCell>
        <mxCell id="TyK7Ge3iMBHYcfCyNtOP-74" value="TM1" style="endArrow=classic;html=1;rounded=0;entryX=-0.014;entryY=0.376;entryDx=0;entryDy=0;entryPerimeter=0;" parent="1" target="TyK7Ge3iMBHYcfCyNtOP-135" edge="1">
          <mxGeometry width="50" height="50" relative="1" as="geometry">
            <mxPoint x="680" y="370" as="sourcePoint" />
            <mxPoint x="720" y="370" as="targetPoint" />
          </mxGeometry>
        </mxCell>
        <mxCell id="TyK7Ge3iMBHYcfCyNtOP-75" value="TM2" style="endArrow=classic;html=1;rounded=0;entryX=-0.029;entryY=0.636;entryDx=0;entryDy=0;entryPerimeter=0;" parent="1" target="TyK7Ge3iMBHYcfCyNtOP-135" edge="1">
          <mxGeometry width="50" height="50" relative="1" as="geometry">
            <mxPoint x="680" y="390" as="sourcePoint" />
            <mxPoint x="720" y="390" as="targetPoint" />
          </mxGeometry>
        </mxCell>
        <mxCell id="TyK7Ge3iMBHYcfCyNtOP-76" value="TM3" style="endArrow=classic;html=1;rounded=0;" parent="1" edge="1">
          <mxGeometry width="50" height="50" relative="1" as="geometry">
            <mxPoint x="680" y="409" as="sourcePoint" />
            <mxPoint x="720" y="409" as="targetPoint" />
          </mxGeometry>
        </mxCell>
        <mxCell id="TyK7Ge3iMBHYcfCyNtOP-81" value="M0" style="endArrow=classic;html=1;rounded=0;" parent="1" edge="1">
          <mxGeometry width="50" height="50" relative="1" as="geometry">
            <mxPoint x="441" y="350" as="sourcePoint" />
            <mxPoint x="490" y="350" as="targetPoint" />
          </mxGeometry>
        </mxCell>
        <mxCell id="TyK7Ge3iMBHYcfCyNtOP-82" value="M1" style="endArrow=classic;html=1;rounded=0;" parent="1" edge="1">
          <mxGeometry width="50" height="50" relative="1" as="geometry">
            <mxPoint x="440" y="370" as="sourcePoint" />
            <mxPoint x="480" y="370" as="targetPoint" />
          </mxGeometry>
        </mxCell>
        <mxCell id="TyK7Ge3iMBHYcfCyNtOP-83" value="M2" style="endArrow=classic;html=1;rounded=0;" parent="1" edge="1">
          <mxGeometry width="50" height="50" relative="1" as="geometry">
            <mxPoint x="440" y="390" as="sourcePoint" />
            <mxPoint x="480" y="390" as="targetPoint" />
          </mxGeometry>
        </mxCell>
        <mxCell id="TyK7Ge3iMBHYcfCyNtOP-84" value="M3" style="endArrow=classic;html=1;rounded=0;" parent="1" edge="1">
          <mxGeometry width="50" height="50" relative="1" as="geometry">
            <mxPoint x="440" y="409" as="sourcePoint" />
            <mxPoint x="480" y="409" as="targetPoint" />
          </mxGeometry>
        </mxCell>
        <mxCell id="TyK7Ge3iMBHYcfCyNtOP-85" value="H0" style="endArrow=classic;html=1;rounded=0;" parent="1" edge="1">
          <mxGeometry width="50" height="50" relative="1" as="geometry">
            <mxPoint x="441" y="570" as="sourcePoint" />
            <mxPoint x="490" y="570" as="targetPoint" />
          </mxGeometry>
        </mxCell>
        <mxCell id="TyK7Ge3iMBHYcfCyNtOP-86" value="H1" style="endArrow=classic;html=1;rounded=0;" parent="1" edge="1">
          <mxGeometry width="50" height="50" relative="1" as="geometry">
            <mxPoint x="440" y="590" as="sourcePoint" />
            <mxPoint x="480" y="590" as="targetPoint" />
          </mxGeometry>
        </mxCell>
        <mxCell id="TyK7Ge3iMBHYcfCyNtOP-87" value="H2" style="endArrow=classic;html=1;rounded=0;" parent="1" edge="1">
          <mxGeometry width="50" height="50" relative="1" as="geometry">
            <mxPoint x="440" y="610" as="sourcePoint" />
            <mxPoint x="500" y="610" as="targetPoint" />
          </mxGeometry>
        </mxCell>
        <mxCell id="TyK7Ge3iMBHYcfCyNtOP-88" value="H3" style="endArrow=classic;html=1;rounded=0;" parent="1" edge="1">
          <mxGeometry width="50" height="50" relative="1" as="geometry">
            <mxPoint x="440" y="629" as="sourcePoint" />
            <mxPoint x="480" y="629" as="targetPoint" />
          </mxGeometry>
        </mxCell>
        <mxCell id="TyK7Ge3iMBHYcfCyNtOP-89" value="TH0" style="endArrow=classic;html=1;rounded=0;" parent="1" edge="1">
          <mxGeometry width="50" height="50" relative="1" as="geometry">
            <mxPoint x="681" y="560" as="sourcePoint" />
            <mxPoint x="721" y="560" as="targetPoint" />
          </mxGeometry>
        </mxCell>
        <mxCell id="TyK7Ge3iMBHYcfCyNtOP-90" value="TH1" style="endArrow=classic;html=1;rounded=0;" parent="1" edge="1">
          <mxGeometry width="50" height="50" relative="1" as="geometry">
            <mxPoint x="680" y="580" as="sourcePoint" />
            <mxPoint x="720" y="580" as="targetPoint" />
          </mxGeometry>
        </mxCell>
        <mxCell id="TyK7Ge3iMBHYcfCyNtOP-91" value="TH2" style="endArrow=classic;html=1;rounded=0;" parent="1" edge="1">
          <mxGeometry width="50" height="50" relative="1" as="geometry">
            <mxPoint x="680" y="600" as="sourcePoint" />
            <mxPoint x="720" y="600" as="targetPoint" />
          </mxGeometry>
        </mxCell>
        <mxCell id="TyK7Ge3iMBHYcfCyNtOP-92" value="TH3" style="endArrow=classic;html=1;rounded=0;" parent="1" edge="1">
          <mxGeometry width="50" height="50" relative="1" as="geometry">
            <mxPoint x="680" y="619" as="sourcePoint" />
            <mxPoint x="720" y="619" as="targetPoint" />
          </mxGeometry>
        </mxCell>
        <mxCell id="TyK7Ge3iMBHYcfCyNtOP-101" style="edgeStyle=orthogonalEdgeStyle;rounded=0;orthogonalLoop=1;jettySize=auto;html=1;exitX=1;exitY=0.5;exitDx=0;exitDy=0;exitPerimeter=0;" parent="1" source="TyK7Ge3iMBHYcfCyNtOP-93" edge="1">
          <mxGeometry relative="1" as="geometry">
            <mxPoint x="400" y="200" as="targetPoint" />
            <Array as="points">
              <mxPoint x="460" y="280" />
              <mxPoint x="400" y="280" />
            </Array>
          </mxGeometry>
        </mxCell>
        <mxCell id="TyK7Ge3iMBHYcfCyNtOP-93" value="" style="shape=or;whiteSpace=wrap;html=1;rotation=90;" parent="1" vertex="1">
          <mxGeometry x="450" y="230" width="20" height="30" as="geometry" />
        </mxCell>
        <mxCell id="TyK7Ge3iMBHYcfCyNtOP-94" value="" style="endArrow=none;html=1;rounded=0;" parent="1" edge="1">
          <mxGeometry width="50" height="50" relative="1" as="geometry">
            <mxPoint x="490" y="80" as="sourcePoint" />
            <mxPoint x="490" y="20" as="targetPoint" />
          </mxGeometry>
        </mxCell>
        <mxCell id="TyK7Ge3iMBHYcfCyNtOP-95" value="" style="endArrow=none;html=1;rounded=0;" parent="1" edge="1">
          <mxGeometry width="50" height="50" relative="1" as="geometry">
            <mxPoint x="490" y="220" as="sourcePoint" />
            <mxPoint x="490" y="130" as="targetPoint" />
          </mxGeometry>
        </mxCell>
        <mxCell id="TyK7Ge3iMBHYcfCyNtOP-96" value="" style="endArrow=none;html=1;rounded=0;" parent="1" edge="1">
          <mxGeometry width="50" height="50" relative="1" as="geometry">
            <mxPoint x="470" y="220" as="sourcePoint" />
            <mxPoint x="490" y="220" as="targetPoint" />
          </mxGeometry>
        </mxCell>
        <mxCell id="TyK7Ge3iMBHYcfCyNtOP-104" value="" style="endArrow=none;html=1;rounded=0;exitX=0;exitY=0.25;exitDx=0;exitDy=0;exitPerimeter=0;" parent="1" source="TyK7Ge3iMBHYcfCyNtOP-93" edge="1">
          <mxGeometry width="50" height="50" relative="1" as="geometry">
            <mxPoint x="470" y="230" as="sourcePoint" />
            <mxPoint x="470" y="220" as="targetPoint" />
          </mxGeometry>
        </mxCell>
        <mxCell id="TyK7Ge3iMBHYcfCyNtOP-107" value="" style="endArrow=none;html=1;rounded=0;" parent="1" edge="1">
          <mxGeometry width="50" height="50" relative="1" as="geometry">
            <mxPoint x="479" y="130" as="sourcePoint" />
            <mxPoint x="490" y="130" as="targetPoint" />
          </mxGeometry>
        </mxCell>
        <mxCell id="TyK7Ge3iMBHYcfCyNtOP-108" value="" style="endArrow=none;html=1;rounded=0;exitX=0;exitY=0.75;exitDx=0;exitDy=0;exitPerimeter=0;" parent="1" source="TyK7Ge3iMBHYcfCyNtOP-93" edge="1">
          <mxGeometry width="50" height="50" relative="1" as="geometry">
            <mxPoint x="450" y="220" as="sourcePoint" />
            <mxPoint x="453" y="190" as="targetPoint" />
          </mxGeometry>
        </mxCell>
        <mxCell id="TyK7Ge3iMBHYcfCyNtOP-111" value="" style="endArrow=none;html=1;rounded=0;" parent="1" edge="1">
          <mxGeometry width="50" height="50" relative="1" as="geometry">
            <mxPoint x="460" y="280" as="sourcePoint" />
            <mxPoint x="520" y="280" as="targetPoint" />
          </mxGeometry>
        </mxCell>
        <mxCell id="TyK7Ge3iMBHYcfCyNtOP-112" value="" style="endArrow=none;html=1;rounded=0;" parent="1" edge="1">
          <mxGeometry width="50" height="50" relative="1" as="geometry">
            <mxPoint x="520" y="280" as="sourcePoint" />
            <mxPoint x="520" y="90" as="targetPoint" />
          </mxGeometry>
        </mxCell>
        <mxCell id="TyK7Ge3iMBHYcfCyNtOP-113" value="" style="endArrow=classic;html=1;rounded=0;" parent="1" edge="1">
          <mxGeometry width="50" height="50" relative="1" as="geometry">
            <mxPoint x="640" y="90" as="sourcePoint" />
            <mxPoint x="639.73" y="120" as="targetPoint" />
          </mxGeometry>
        </mxCell>
        <mxCell id="TyK7Ge3iMBHYcfCyNtOP-114" value="" style="endArrow=none;html=1;rounded=0;" parent="1" edge="1">
          <mxGeometry width="50" height="50" relative="1" as="geometry">
            <mxPoint x="520" y="90" as="sourcePoint" />
            <mxPoint x="640" y="90" as="targetPoint" />
          </mxGeometry>
        </mxCell>
        <mxCell id="TyK7Ge3iMBHYcfCyNtOP-122" style="edgeStyle=orthogonalEdgeStyle;rounded=0;orthogonalLoop=1;jettySize=auto;html=1;exitX=1;exitY=0.5;exitDx=0;exitDy=0;exitPerimeter=0;entryX=0.5;entryY=1;entryDx=0;entryDy=0;" parent="1" source="TyK7Ge3iMBHYcfCyNtOP-115" target="TyK7Ge3iMBHYcfCyNtOP-41" edge="1">
          <mxGeometry relative="1" as="geometry" />
        </mxCell>
        <mxCell id="TyK7Ge3iMBHYcfCyNtOP-115" value="" style="shape=or;whiteSpace=wrap;html=1;" parent="1" vertex="1">
          <mxGeometry x="740" y="135" width="40" height="50" as="geometry" />
        </mxCell>
        <mxCell id="TyK7Ge3iMBHYcfCyNtOP-118" value="" style="endArrow=none;html=1;rounded=0;" parent="1" edge="1">
          <mxGeometry width="50" height="50" relative="1" as="geometry">
            <mxPoint x="719" y="189" as="sourcePoint" />
            <mxPoint x="730" y="189" as="targetPoint" />
          </mxGeometry>
        </mxCell>
        <mxCell id="TyK7Ge3iMBHYcfCyNtOP-119" value="" style="endArrow=none;html=1;rounded=0;" parent="1" edge="1">
          <mxGeometry width="50" height="50" relative="1" as="geometry">
            <mxPoint x="730" y="189" as="sourcePoint" />
            <mxPoint x="730" y="180" as="targetPoint" />
          </mxGeometry>
        </mxCell>
        <mxCell id="TyK7Ge3iMBHYcfCyNtOP-120" value="" style="endArrow=none;html=1;rounded=0;" parent="1" edge="1">
          <mxGeometry width="50" height="50" relative="1" as="geometry">
            <mxPoint x="729" y="180" as="sourcePoint" />
            <mxPoint x="740" y="180" as="targetPoint" />
          </mxGeometry>
        </mxCell>
        <mxCell id="TyK7Ge3iMBHYcfCyNtOP-123" value="" style="endArrow=none;html=1;rounded=0;" parent="1" edge="1">
          <mxGeometry width="50" height="50" relative="1" as="geometry">
            <mxPoint x="640" y="300" as="sourcePoint" />
            <mxPoint x="640" y="220" as="targetPoint" />
          </mxGeometry>
        </mxCell>
        <mxCell id="TyK7Ge3iMBHYcfCyNtOP-124" value="" style="endArrow=none;html=1;rounded=0;" parent="1" edge="1">
          <mxGeometry width="50" height="50" relative="1" as="geometry">
            <mxPoint x="400" y="300" as="sourcePoint" />
            <mxPoint x="640" y="300" as="targetPoint" />
            <Array as="points">
              <mxPoint x="520" y="300" />
            </Array>
          </mxGeometry>
        </mxCell>
        <mxCell id="TyK7Ge3iMBHYcfCyNtOP-125" value="" style="endArrow=classic;html=1;rounded=0;" parent="1" edge="1">
          <mxGeometry width="50" height="50" relative="1" as="geometry">
            <mxPoint x="400" y="300" as="sourcePoint" />
            <mxPoint x="400" y="340" as="targetPoint" />
          </mxGeometry>
        </mxCell>
        <mxCell id="TyK7Ge3iMBHYcfCyNtOP-126" value="" style="endArrow=none;html=1;rounded=0;" parent="1" edge="1">
          <mxGeometry width="50" height="50" relative="1" as="geometry">
            <mxPoint x="489" y="439" as="sourcePoint" />
            <mxPoint x="489" y="349" as="targetPoint" />
          </mxGeometry>
        </mxCell>
        <mxCell id="TyK7Ge3iMBHYcfCyNtOP-127" value="" style="endArrow=none;html=1;rounded=0;exitX=0;exitY=0.75;exitDx=0;exitDy=0;exitPerimeter=0;" parent="1" source="TyK7Ge3iMBHYcfCyNtOP-129" edge="1">
          <mxGeometry width="50" height="50" relative="1" as="geometry">
            <mxPoint x="449" y="439" as="sourcePoint" />
            <mxPoint x="452" y="409" as="targetPoint" />
          </mxGeometry>
        </mxCell>
        <mxCell id="TyK7Ge3iMBHYcfCyNtOP-128" value="" style="endArrow=none;html=1;rounded=0;exitX=0;exitY=0.25;exitDx=0;exitDy=0;exitPerimeter=0;" parent="1" source="TyK7Ge3iMBHYcfCyNtOP-129" edge="1">
          <mxGeometry width="50" height="50" relative="1" as="geometry">
            <mxPoint x="469" y="449" as="sourcePoint" />
            <mxPoint x="469" y="439" as="targetPoint" />
          </mxGeometry>
        </mxCell>
        <mxCell id="TyK7Ge3iMBHYcfCyNtOP-132" style="edgeStyle=orthogonalEdgeStyle;rounded=0;orthogonalLoop=1;jettySize=auto;html=1;exitX=1;exitY=0.5;exitDx=0;exitDy=0;exitPerimeter=0;entryX=0.25;entryY=0.5;entryDx=0;entryDy=0;entryPerimeter=0;" parent="1" source="TyK7Ge3iMBHYcfCyNtOP-129" target="fFUhXE5g0Uw-F75FcCPk-8" edge="1">
          <mxGeometry relative="1" as="geometry">
            <mxPoint x="400" y="460" as="targetPoint" />
            <Array as="points">
              <mxPoint x="459" y="494" />
              <mxPoint x="392" y="494" />
              <mxPoint x="392" y="474" />
              <mxPoint x="340" y="474" />
              <mxPoint x="340" y="470" />
            </Array>
          </mxGeometry>
        </mxCell>
        <mxCell id="TyK7Ge3iMBHYcfCyNtOP-134" style="edgeStyle=orthogonalEdgeStyle;rounded=0;orthogonalLoop=1;jettySize=auto;html=1;exitX=1;exitY=0.5;exitDx=0;exitDy=0;exitPerimeter=0;entryX=0.5;entryY=0;entryDx=0;entryDy=0;" parent="1" source="TyK7Ge3iMBHYcfCyNtOP-129" target="TyK7Ge3iMBHYcfCyNtOP-47" edge="1">
          <mxGeometry relative="1" as="geometry" />
        </mxCell>
        <mxCell id="TyK7Ge3iMBHYcfCyNtOP-129" value="" style="shape=or;whiteSpace=wrap;html=1;rotation=90;" parent="1" vertex="1">
          <mxGeometry x="449" y="449" width="20" height="30" as="geometry" />
        </mxCell>
        <mxCell id="TyK7Ge3iMBHYcfCyNtOP-131" value="" style="endArrow=none;html=1;rounded=0;" parent="1" edge="1">
          <mxGeometry width="50" height="50" relative="1" as="geometry">
            <mxPoint x="469" y="439" as="sourcePoint" />
            <mxPoint x="489" y="439" as="targetPoint" />
          </mxGeometry>
        </mxCell>
        <mxCell id="TyK7Ge3iMBHYcfCyNtOP-138" style="edgeStyle=orthogonalEdgeStyle;rounded=0;orthogonalLoop=1;jettySize=auto;html=1;exitX=1;exitY=0.5;exitDx=0;exitDy=0;exitPerimeter=0;entryX=0.175;entryY=0.75;entryDx=0;entryDy=0;entryPerimeter=0;" parent="1" source="TyK7Ge3iMBHYcfCyNtOP-135" target="fFUhXE5g0Uw-F75FcCPk-34" edge="1">
          <mxGeometry relative="1" as="geometry">
            <mxPoint x="710" y="460" as="targetPoint" />
            <Array as="points">
              <mxPoint x="820" y="380" />
              <mxPoint x="820" y="440" />
              <mxPoint x="700" y="440" />
              <mxPoint x="700" y="460" />
              <mxPoint x="685" y="460" />
            </Array>
          </mxGeometry>
        </mxCell>
        <mxCell id="TyK7Ge3iMBHYcfCyNtOP-139" style="edgeStyle=orthogonalEdgeStyle;rounded=0;orthogonalLoop=1;jettySize=auto;html=1;exitX=1;exitY=0.5;exitDx=0;exitDy=0;exitPerimeter=0;entryX=0.5;entryY=0;entryDx=0;entryDy=0;" parent="1" source="TyK7Ge3iMBHYcfCyNtOP-135" target="TyK7Ge3iMBHYcfCyNtOP-57" edge="1">
          <mxGeometry relative="1" as="geometry">
            <Array as="points">
              <mxPoint x="820" y="380" />
              <mxPoint x="820" y="520" />
              <mxPoint x="400" y="520" />
            </Array>
          </mxGeometry>
        </mxCell>
        <mxCell id="TyK7Ge3iMBHYcfCyNtOP-135" value="" style="shape=or;whiteSpace=wrap;html=1;" parent="1" vertex="1">
          <mxGeometry x="740" y="340" width="60" height="80" as="geometry" />
        </mxCell>
        <mxCell id="TyK7Ge3iMBHYcfCyNtOP-140" value="" style="endArrow=none;html=1;rounded=0;" parent="1" edge="1">
          <mxGeometry width="50" height="50" relative="1" as="geometry">
            <mxPoint x="489" y="659" as="sourcePoint" />
            <mxPoint x="489" y="569" as="targetPoint" />
          </mxGeometry>
        </mxCell>
        <mxCell id="TyK7Ge3iMBHYcfCyNtOP-141" value="" style="endArrow=none;html=1;rounded=0;exitX=0;exitY=0.75;exitDx=0;exitDy=0;exitPerimeter=0;" parent="1" source="TyK7Ge3iMBHYcfCyNtOP-143" edge="1">
          <mxGeometry width="50" height="50" relative="1" as="geometry">
            <mxPoint x="449" y="659" as="sourcePoint" />
            <mxPoint x="452" y="629" as="targetPoint" />
          </mxGeometry>
        </mxCell>
        <mxCell id="TyK7Ge3iMBHYcfCyNtOP-142" value="" style="endArrow=none;html=1;rounded=0;" parent="1" edge="1">
          <mxGeometry width="50" height="50" relative="1" as="geometry">
            <mxPoint x="469" y="659" as="sourcePoint" />
            <mxPoint x="489" y="659" as="targetPoint" />
          </mxGeometry>
        </mxCell>
        <mxCell id="TyK7Ge3iMBHYcfCyNtOP-146" style="edgeStyle=orthogonalEdgeStyle;rounded=0;orthogonalLoop=1;jettySize=auto;html=1;exitX=1;exitY=0.5;exitDx=0;exitDy=0;exitPerimeter=0;entryX=0.5;entryY=0;entryDx=0;entryDy=0;" parent="1" source="TyK7Ge3iMBHYcfCyNtOP-143" target="TyK7Ge3iMBHYcfCyNtOP-52" edge="1">
          <mxGeometry relative="1" as="geometry" />
        </mxCell>
        <mxCell id="TyK7Ge3iMBHYcfCyNtOP-148" style="edgeStyle=orthogonalEdgeStyle;rounded=0;orthogonalLoop=1;jettySize=auto;html=1;exitX=1;exitY=0.5;exitDx=0;exitDy=0;exitPerimeter=0;entryX=0.175;entryY=0.75;entryDx=0;entryDy=0;entryPerimeter=0;" parent="1" source="TyK7Ge3iMBHYcfCyNtOP-143" target="TyK7Ge3iMBHYcfCyNtOP-149" edge="1">
          <mxGeometry relative="1" as="geometry">
            <mxPoint x="459" y="770" as="targetPoint" />
          </mxGeometry>
        </mxCell>
        <mxCell id="TyK7Ge3iMBHYcfCyNtOP-143" value="" style="shape=or;whiteSpace=wrap;html=1;rotation=90;" parent="1" vertex="1">
          <mxGeometry x="449" y="669" width="20" height="30" as="geometry" />
        </mxCell>
        <mxCell id="TyK7Ge3iMBHYcfCyNtOP-144" value="" style="endArrow=none;html=1;rounded=0;exitX=0;exitY=0.25;exitDx=0;exitDy=0;exitPerimeter=0;" parent="1" edge="1">
          <mxGeometry width="50" height="50" relative="1" as="geometry">
            <mxPoint x="467.5" y="673" as="sourcePoint" />
            <mxPoint x="470" y="658" as="targetPoint" />
          </mxGeometry>
        </mxCell>
        <mxCell id="TyK7Ge3iMBHYcfCyNtOP-160" style="edgeStyle=orthogonalEdgeStyle;rounded=0;orthogonalLoop=1;jettySize=auto;html=1;exitX=1;exitY=0.5;exitDx=0;exitDy=0;exitPerimeter=0;entryX=0.227;entryY=0.353;entryDx=0;entryDy=0;entryPerimeter=0;" parent="1" source="TyK7Ge3iMBHYcfCyNtOP-149" target="fFUhXE5g0Uw-F75FcCPk-22" edge="1">
          <mxGeometry relative="1" as="geometry">
            <mxPoint x="465" y="900" as="targetPoint" />
          </mxGeometry>
        </mxCell>
        <mxCell id="TyK7Ge3iMBHYcfCyNtOP-149" value="" style="shape=xor;whiteSpace=wrap;html=1;rotation=90;" parent="1" vertex="1">
          <mxGeometry x="450" y="820" width="30" height="40" as="geometry" />
        </mxCell>
        <mxCell id="TyK7Ge3iMBHYcfCyNtOP-151" value="" style="endArrow=none;html=1;rounded=0;" parent="1" edge="1">
          <mxGeometry width="50" height="50" relative="1" as="geometry">
            <mxPoint x="500" y="750" as="sourcePoint" />
            <mxPoint x="500" y="610" as="targetPoint" />
          </mxGeometry>
        </mxCell>
        <mxCell id="TyK7Ge3iMBHYcfCyNtOP-152" value="" style="endArrow=none;html=1;rounded=0;" parent="1" edge="1">
          <mxGeometry width="50" height="50" relative="1" as="geometry">
            <mxPoint x="480" y="750" as="sourcePoint" />
            <mxPoint x="500" y="750" as="targetPoint" />
          </mxGeometry>
        </mxCell>
        <mxCell id="TyK7Ge3iMBHYcfCyNtOP-153" value="" style="endArrow=classic;html=1;rounded=0;entryX=0;entryY=0.75;entryDx=0;entryDy=0;entryPerimeter=0;" parent="1" target="TyK7Ge3iMBHYcfCyNtOP-158" edge="1">
          <mxGeometry width="50" height="50" relative="1" as="geometry">
            <mxPoint x="480" y="750" as="sourcePoint" />
            <mxPoint x="480" y="770" as="targetPoint" />
            <Array as="points" />
          </mxGeometry>
        </mxCell>
        <mxCell id="TyK7Ge3iMBHYcfCyNtOP-154" value="" style="endArrow=none;html=1;rounded=0;" parent="1" edge="1">
          <mxGeometry width="50" height="50" relative="1" as="geometry">
            <mxPoint x="720" y="600" as="sourcePoint" />
            <mxPoint x="790" y="600" as="targetPoint" />
          </mxGeometry>
        </mxCell>
        <mxCell id="TyK7Ge3iMBHYcfCyNtOP-155" value="" style="endArrow=none;html=1;rounded=0;" parent="1" edge="1">
          <mxGeometry width="50" height="50" relative="1" as="geometry">
            <mxPoint x="790" y="599.9999999999999" as="sourcePoint" />
            <mxPoint x="790" y="760.43" as="targetPoint" />
          </mxGeometry>
        </mxCell>
        <mxCell id="TyK7Ge3iMBHYcfCyNtOP-156" value="" style="endArrow=none;html=1;rounded=0;" parent="1" edge="1">
          <mxGeometry width="50" height="50" relative="1" as="geometry">
            <mxPoint x="490" y="760" as="sourcePoint" />
            <mxPoint x="791" y="759.9999999999999" as="targetPoint" />
          </mxGeometry>
        </mxCell>
        <mxCell id="TyK7Ge3iMBHYcfCyNtOP-157" value="" style="endArrow=classic;html=1;rounded=0;entryX=0;entryY=0.25;entryDx=0;entryDy=0;entryPerimeter=0;" parent="1" target="TyK7Ge3iMBHYcfCyNtOP-158" edge="1">
          <mxGeometry width="50" height="50" relative="1" as="geometry">
            <mxPoint x="496" y="760" as="sourcePoint" />
            <mxPoint x="499" y="789" as="targetPoint" />
          </mxGeometry>
        </mxCell>
        <mxCell id="TyK7Ge3iMBHYcfCyNtOP-159" style="edgeStyle=orthogonalEdgeStyle;rounded=0;orthogonalLoop=1;jettySize=auto;html=1;exitX=1;exitY=0.5;exitDx=0;exitDy=0;exitPerimeter=0;entryX=0.175;entryY=0.25;entryDx=0;entryDy=0;entryPerimeter=0;" parent="1" source="TyK7Ge3iMBHYcfCyNtOP-158" target="TyK7Ge3iMBHYcfCyNtOP-149" edge="1">
          <mxGeometry relative="1" as="geometry" />
        </mxCell>
        <mxCell id="TyK7Ge3iMBHYcfCyNtOP-158" value="" style="shape=or;whiteSpace=wrap;html=1;rotation=90;" parent="1" vertex="1">
          <mxGeometry x="480" y="770" width="20" height="30" as="geometry" />
        </mxCell>
        <mxCell id="TyK7Ge3iMBHYcfCyNtOP-161" value="" style="endArrow=classic;html=1;rounded=0;entryX=0.175;entryY=0.25;entryDx=0;entryDy=0;entryPerimeter=0;" parent="1" edge="1" target="fFUhXE5g0Uw-F75FcCPk-28">
          <mxGeometry width="50" height="50" relative="1" as="geometry">
            <mxPoint x="630" y="760" as="sourcePoint" />
            <mxPoint x="640" y="700" as="targetPoint" />
          </mxGeometry>
        </mxCell>
        <mxCell id="TyK7Ge3iMBHYcfCyNtOP-162" value="" style="endArrow=none;html=1;rounded=0;entryX=0;entryY=0.5;entryDx=0;entryDy=0;exitX=1;exitY=0.75;exitDx=0;exitDy=0;" parent="1" source="TyK7Ge3iMBHYcfCyNtOP-1" target="TyK7Ge3iMBHYcfCyNtOP-9" edge="1">
          <mxGeometry width="50" height="50" relative="1" as="geometry">
            <mxPoint x="300" y="200" as="sourcePoint" />
            <mxPoint x="300" y="140" as="targetPoint" />
          </mxGeometry>
        </mxCell>
        <mxCell id="TyK7Ge3iMBHYcfCyNtOP-163" value="" style="endArrow=none;html=1;rounded=0;entryX=0;entryY=0.5;entryDx=0;entryDy=0;" parent="1" edge="1">
          <mxGeometry width="50" height="50" relative="1" as="geometry">
            <mxPoint x="310" y="400" as="sourcePoint" />
            <mxPoint x="360" y="400" as="targetPoint" />
          </mxGeometry>
        </mxCell>
        <mxCell id="TyK7Ge3iMBHYcfCyNtOP-164" value="" style="endArrow=none;html=1;rounded=0;" parent="1" edge="1">
          <mxGeometry width="50" height="50" relative="1" as="geometry">
            <mxPoint x="310" y="400" as="sourcePoint" />
            <mxPoint x="310" y="180" as="targetPoint" />
          </mxGeometry>
        </mxCell>
        <mxCell id="TyK7Ge3iMBHYcfCyNtOP-165" value="" style="endArrow=none;html=1;rounded=0;" parent="1" edge="1">
          <mxGeometry width="50" height="50" relative="1" as="geometry">
            <mxPoint x="310" y="290" as="sourcePoint" />
            <mxPoint x="580" y="290" as="targetPoint" />
          </mxGeometry>
        </mxCell>
        <mxCell id="TyK7Ge3iMBHYcfCyNtOP-166" value="" style="endArrow=none;html=1;rounded=0;" parent="1" edge="1">
          <mxGeometry width="50" height="50" relative="1" as="geometry">
            <mxPoint x="580" y="290" as="sourcePoint" />
            <mxPoint x="580" y="180" as="targetPoint" />
          </mxGeometry>
        </mxCell>
        <mxCell id="TyK7Ge3iMBHYcfCyNtOP-167" value="" style="endArrow=none;html=1;rounded=0;" parent="1" edge="1">
          <mxGeometry width="50" height="50" relative="1" as="geometry">
            <mxPoint x="580" y="180" as="sourcePoint" />
            <mxPoint x="600" y="180" as="targetPoint" />
          </mxGeometry>
        </mxCell>
        <mxCell id="TyK7Ge3iMBHYcfCyNtOP-168" value="" style="endArrow=none;html=1;rounded=0;" parent="1" edge="1">
          <mxGeometry width="50" height="50" relative="1" as="geometry">
            <mxPoint x="310" y="510" as="sourcePoint" />
            <mxPoint x="310.0000000000001" y="400" as="targetPoint" />
          </mxGeometry>
        </mxCell>
        <mxCell id="TyK7Ge3iMBHYcfCyNtOP-169" value="" style="endArrow=none;html=1;rounded=0;" parent="1" edge="1">
          <mxGeometry width="50" height="50" relative="1" as="geometry">
            <mxPoint x="310.0000000000001" y="510" as="sourcePoint" />
            <mxPoint x="580" y="510" as="targetPoint" />
          </mxGeometry>
        </mxCell>
        <mxCell id="TyK7Ge3iMBHYcfCyNtOP-170" value="" style="endArrow=none;html=1;rounded=0;" parent="1" edge="1">
          <mxGeometry width="50" height="50" relative="1" as="geometry">
            <mxPoint x="580.0000000000001" y="509.9999999999999" as="sourcePoint" />
            <mxPoint x="580.0000000000001" y="400" as="targetPoint" />
          </mxGeometry>
        </mxCell>
        <mxCell id="TyK7Ge3iMBHYcfCyNtOP-171" value="" style="endArrow=none;html=1;rounded=0;" parent="1" edge="1">
          <mxGeometry width="50" height="50" relative="1" as="geometry">
            <mxPoint x="580" y="400" as="sourcePoint" />
            <mxPoint x="600" y="400" as="targetPoint" />
          </mxGeometry>
        </mxCell>
        <mxCell id="TyK7Ge3iMBHYcfCyNtOP-172" value="" style="endArrow=none;html=1;rounded=0;" parent="1" edge="1">
          <mxGeometry width="50" height="50" relative="1" as="geometry">
            <mxPoint x="310.0000000000001" y="618.9999999999999" as="sourcePoint" />
            <mxPoint x="310.0000000000001" y="509" as="targetPoint" />
          </mxGeometry>
        </mxCell>
        <mxCell id="TyK7Ge3iMBHYcfCyNtOP-173" value="" style="endArrow=none;html=1;rounded=0;entryX=0;entryY=0.5;entryDx=0;entryDy=0;" parent="1" edge="1">
          <mxGeometry width="50" height="50" relative="1" as="geometry">
            <mxPoint x="310.0000000000001" y="620" as="sourcePoint" />
            <mxPoint x="360" y="620" as="targetPoint" />
          </mxGeometry>
        </mxCell>
        <mxCell id="TyK7Ge3iMBHYcfCyNtOP-174" value="" style="endArrow=none;html=1;rounded=0;" parent="1" edge="1">
          <mxGeometry width="50" height="50" relative="1" as="geometry">
            <mxPoint x="310.0000000000001" y="728.9999999999999" as="sourcePoint" />
            <mxPoint x="310.0000000000001" y="619" as="targetPoint" />
          </mxGeometry>
        </mxCell>
        <mxCell id="TyK7Ge3iMBHYcfCyNtOP-175" value="" style="endArrow=none;html=1;rounded=0;" parent="1" edge="1">
          <mxGeometry width="50" height="50" relative="1" as="geometry">
            <mxPoint x="310.0000000000001" y="729.9999999999999" as="sourcePoint" />
            <mxPoint x="580" y="729.9999999999999" as="targetPoint" />
          </mxGeometry>
        </mxCell>
        <mxCell id="TyK7Ge3iMBHYcfCyNtOP-176" value="" style="endArrow=none;html=1;rounded=0;" parent="1" edge="1">
          <mxGeometry width="50" height="50" relative="1" as="geometry">
            <mxPoint x="580.0000000000001" y="730" as="sourcePoint" />
            <mxPoint x="580" y="610" as="targetPoint" />
          </mxGeometry>
        </mxCell>
        <mxCell id="TyK7Ge3iMBHYcfCyNtOP-177" value="" style="endArrow=none;html=1;rounded=0;" parent="1" edge="1">
          <mxGeometry width="50" height="50" relative="1" as="geometry">
            <mxPoint x="580" y="610" as="sourcePoint" />
            <mxPoint x="600" y="610" as="targetPoint" />
          </mxGeometry>
        </mxCell>
        <mxCell id="fFUhXE5g0Uw-F75FcCPk-1" value="AJM" style="endArrow=classic;html=1;rounded=0;entryX=0.65;entryY=1.1;entryDx=0;entryDy=0;entryPerimeter=0;" edge="1" parent="1" target="fFUhXE5g0Uw-F75FcCPk-2">
          <mxGeometry width="50" height="50" relative="1" as="geometry">
            <mxPoint x="210" y="365" as="sourcePoint" />
            <mxPoint x="250" y="370" as="targetPoint" />
          </mxGeometry>
        </mxCell>
        <mxCell id="fFUhXE5g0Uw-F75FcCPk-7" style="edgeStyle=orthogonalEdgeStyle;rounded=0;orthogonalLoop=1;jettySize=auto;html=1;exitX=0.558;exitY=0.004;exitDx=0;exitDy=0;entryX=0;entryY=0.25;entryDx=0;entryDy=0;exitPerimeter=0;" edge="1" parent="1" source="fFUhXE5g0Uw-F75FcCPk-2" target="TyK7Ge3iMBHYcfCyNtOP-35">
          <mxGeometry relative="1" as="geometry" />
        </mxCell>
        <mxCell id="fFUhXE5g0Uw-F75FcCPk-2" value="" style="shape=trapezoid;perimeter=trapezoidPerimeter;whiteSpace=wrap;html=1;fixedSize=1;rotation=90;" vertex="1" parent="1">
          <mxGeometry x="250" y="345" width="50" height="25" as="geometry" />
        </mxCell>
        <mxCell id="fFUhXE5g0Uw-F75FcCPk-3" value="BTNC" style="endArrow=classic;html=1;rounded=0;" edge="1" parent="1">
          <mxGeometry width="50" height="50" relative="1" as="geometry">
            <mxPoint x="274.8" y="425" as="sourcePoint" />
            <mxPoint x="274.8" y="370" as="targetPoint" />
          </mxGeometry>
        </mxCell>
        <mxCell id="fFUhXE5g0Uw-F75FcCPk-5" value="0" style="text;html=1;strokeColor=none;fillColor=none;align=center;verticalAlign=middle;whiteSpace=wrap;rounded=0;" vertex="1" parent="1">
          <mxGeometry x="260" y="345" width="10" height="10" as="geometry" />
        </mxCell>
        <mxCell id="fFUhXE5g0Uw-F75FcCPk-6" value="1" style="text;html=1;strokeColor=none;fillColor=none;align=center;verticalAlign=middle;whiteSpace=wrap;rounded=0;" vertex="1" parent="1">
          <mxGeometry x="260" y="365" width="10" height="10" as="geometry" />
        </mxCell>
        <mxCell id="fFUhXE5g0Uw-F75FcCPk-13" style="edgeStyle=orthogonalEdgeStyle;rounded=0;orthogonalLoop=1;jettySize=auto;html=1;exitX=1;exitY=0.5;exitDx=0;exitDy=0;exitPerimeter=0;entryX=0.5;entryY=0.667;entryDx=0;entryDy=0;entryPerimeter=0;" edge="1" parent="1" source="fFUhXE5g0Uw-F75FcCPk-8" target="TyK7Ge3iMBHYcfCyNtOP-36">
          <mxGeometry relative="1" as="geometry">
            <Array as="points">
              <mxPoint x="300" y="470" />
              <mxPoint x="300" y="430" />
              <mxPoint x="400" y="430" />
            </Array>
          </mxGeometry>
        </mxCell>
        <mxCell id="fFUhXE5g0Uw-F75FcCPk-8" value="" style="shape=xor;whiteSpace=wrap;html=1;rotation=-180;" vertex="1" parent="1">
          <mxGeometry x="320" y="450" width="20" height="40" as="geometry" />
        </mxCell>
        <mxCell id="fFUhXE5g0Uw-F75FcCPk-24" style="edgeStyle=orthogonalEdgeStyle;rounded=0;orthogonalLoop=1;jettySize=auto;html=1;exitX=1;exitY=0.5;exitDx=0;exitDy=0;exitPerimeter=0;fontSize=10;entryX=0.5;entryY=1;entryDx=0;entryDy=0;" edge="1" parent="1" source="fFUhXE5g0Uw-F75FcCPk-22" target="TyK7Ge3iMBHYcfCyNtOP-56">
          <mxGeometry relative="1" as="geometry">
            <mxPoint x="360" y="664" as="targetPoint" />
            <Array as="points">
              <mxPoint x="434" y="939" />
              <mxPoint x="360" y="939" />
              <mxPoint x="360" y="760" />
              <mxPoint x="400" y="760" />
            </Array>
          </mxGeometry>
        </mxCell>
        <mxCell id="fFUhXE5g0Uw-F75FcCPk-22" value="" style="shape=xor;whiteSpace=wrap;html=1;fontSize=10;rotation=90;" vertex="1" parent="1">
          <mxGeometry x="420" y="890" width="28" height="30" as="geometry" />
        </mxCell>
        <mxCell id="fFUhXE5g0Uw-F75FcCPk-29" style="edgeStyle=orthogonalEdgeStyle;rounded=0;orthogonalLoop=1;jettySize=auto;html=1;exitX=1;exitY=0.5;exitDx=0;exitDy=0;exitPerimeter=0;entryX=0;entryY=0.833;entryDx=0;entryDy=0;entryPerimeter=0;fontSize=10;" edge="1" parent="1" source="fFUhXE5g0Uw-F75FcCPk-25" target="fFUhXE5g0Uw-F75FcCPk-28">
          <mxGeometry relative="1" as="geometry" />
        </mxCell>
        <mxCell id="fFUhXE5g0Uw-F75FcCPk-32" style="edgeStyle=orthogonalEdgeStyle;rounded=0;orthogonalLoop=1;jettySize=auto;html=1;exitX=1;exitY=0.5;exitDx=0;exitDy=0;exitPerimeter=0;fontSize=10;entryX=0.175;entryY=0.75;entryDx=0;entryDy=0;entryPerimeter=0;" edge="1" parent="1" source="fFUhXE5g0Uw-F75FcCPk-25" target="fFUhXE5g0Uw-F75FcCPk-8">
          <mxGeometry relative="1" as="geometry">
            <mxPoint x="350" y="475" as="targetPoint" />
            <Array as="points">
              <mxPoint x="827" y="725" />
              <mxPoint x="350" y="725" />
              <mxPoint x="350" y="460" />
            </Array>
          </mxGeometry>
        </mxCell>
        <mxCell id="fFUhXE5g0Uw-F75FcCPk-33" style="edgeStyle=orthogonalEdgeStyle;rounded=0;orthogonalLoop=1;jettySize=auto;html=1;exitX=1;exitY=0.5;exitDx=0;exitDy=0;exitPerimeter=0;entryX=0.175;entryY=0.75;entryDx=0;entryDy=0;entryPerimeter=0;fontSize=10;" edge="1" parent="1" source="fFUhXE5g0Uw-F75FcCPk-25" target="fFUhXE5g0Uw-F75FcCPk-22">
          <mxGeometry relative="1" as="geometry" />
        </mxCell>
        <mxCell id="fFUhXE5g0Uw-F75FcCPk-35" style="edgeStyle=orthogonalEdgeStyle;rounded=0;orthogonalLoop=1;jettySize=auto;html=1;exitX=1;exitY=0.5;exitDx=0;exitDy=0;exitPerimeter=0;entryX=0.175;entryY=0.25;entryDx=0;entryDy=0;entryPerimeter=0;fontSize=10;" edge="1" parent="1" source="fFUhXE5g0Uw-F75FcCPk-25" target="fFUhXE5g0Uw-F75FcCPk-34">
          <mxGeometry relative="1" as="geometry">
            <Array as="points">
              <mxPoint x="827" y="725" />
              <mxPoint x="880" y="725" />
              <mxPoint x="880" y="469" />
            </Array>
          </mxGeometry>
        </mxCell>
        <mxCell id="fFUhXE5g0Uw-F75FcCPk-25" value="" style="shape=or;whiteSpace=wrap;html=1;rotation=90;" vertex="1" parent="1">
          <mxGeometry x="812" y="670" width="30" height="40" as="geometry" />
        </mxCell>
        <mxCell id="fFUhXE5g0Uw-F75FcCPk-26" value="BTNC" style="endArrow=classic;html=1;rounded=0;entryX=0;entryY=0.25;entryDx=0;entryDy=0;entryPerimeter=0;" edge="1" target="fFUhXE5g0Uw-F75FcCPk-25" parent="1">
          <mxGeometry width="50" height="50" relative="1" as="geometry">
            <mxPoint x="837" y="600" as="sourcePoint" />
            <mxPoint x="841.6" y="660" as="targetPoint" />
          </mxGeometry>
        </mxCell>
        <mxCell id="fFUhXE5g0Uw-F75FcCPk-27" value="Mode" style="endArrow=classic;html=1;rounded=0;entryX=0;entryY=0.75;entryDx=0;entryDy=0;entryPerimeter=0;" edge="1" target="fFUhXE5g0Uw-F75FcCPk-25" parent="1">
          <mxGeometry width="50" height="50" relative="1" as="geometry">
            <mxPoint x="817" y="630" as="sourcePoint" />
            <mxPoint x="821.8" y="670" as="targetPoint" />
          </mxGeometry>
        </mxCell>
        <mxCell id="fFUhXE5g0Uw-F75FcCPk-30" style="edgeStyle=orthogonalEdgeStyle;rounded=0;orthogonalLoop=1;jettySize=auto;html=1;exitX=1;exitY=0.5;exitDx=0;exitDy=0;exitPerimeter=0;entryX=0.503;entryY=0.667;entryDx=0;entryDy=0;entryPerimeter=0;fontSize=10;" edge="1" parent="1" source="fFUhXE5g0Uw-F75FcCPk-28" target="TyK7Ge3iMBHYcfCyNtOP-51">
          <mxGeometry relative="1" as="geometry" />
        </mxCell>
        <mxCell id="fFUhXE5g0Uw-F75FcCPk-28" value="" style="shape=xor;whiteSpace=wrap;html=1;fontSize=10;rotation=-90;" vertex="1" parent="1">
          <mxGeometry x="630" y="675" width="20" height="30" as="geometry" />
        </mxCell>
        <mxCell id="fFUhXE5g0Uw-F75FcCPk-36" style="edgeStyle=orthogonalEdgeStyle;rounded=0;orthogonalLoop=1;jettySize=auto;html=1;exitX=1;exitY=0.5;exitDx=0;exitDy=0;exitPerimeter=0;entryX=0.5;entryY=1;entryDx=0;entryDy=0;fontSize=10;" edge="1" parent="1" source="fFUhXE5g0Uw-F75FcCPk-34" target="TyK7Ge3iMBHYcfCyNtOP-46">
          <mxGeometry relative="1" as="geometry" />
        </mxCell>
        <mxCell id="fFUhXE5g0Uw-F75FcCPk-34" value="" style="shape=xor;whiteSpace=wrap;html=1;fontSize=10;rotation=-180;" vertex="1" parent="1">
          <mxGeometry x="660" y="439" width="30" height="40" as="geometry" />
        </mxCell>
        <mxCell id="fFUhXE5g0Uw-F75FcCPk-43" value="0000" style="endArrow=classic;html=1;rounded=0;entryX=0.25;entryY=1;entryDx=0;entryDy=0;" edge="1" target="fFUhXE5g0Uw-F75FcCPk-45" parent="1">
          <mxGeometry width="50" height="50" relative="1" as="geometry">
            <mxPoint x="500" y="345" as="sourcePoint" />
            <mxPoint x="540" y="349.5" as="targetPoint" />
          </mxGeometry>
        </mxCell>
        <mxCell id="fFUhXE5g0Uw-F75FcCPk-44" value="AJTM" style="endArrow=classic;html=1;rounded=0;entryX=0.65;entryY=1.1;entryDx=0;entryDy=0;entryPerimeter=0;" edge="1" target="fFUhXE5g0Uw-F75FcCPk-45" parent="1">
          <mxGeometry width="50" height="50" relative="1" as="geometry">
            <mxPoint x="500" y="365" as="sourcePoint" />
            <mxPoint x="540" y="370" as="targetPoint" />
          </mxGeometry>
        </mxCell>
        <mxCell id="fFUhXE5g0Uw-F75FcCPk-49" style="edgeStyle=orthogonalEdgeStyle;rounded=0;orthogonalLoop=1;jettySize=auto;html=1;exitX=0.5;exitY=0;exitDx=0;exitDy=0;entryX=0;entryY=0.22;entryDx=0;entryDy=0;entryPerimeter=0;fontSize=10;" edge="1" parent="1" source="fFUhXE5g0Uw-F75FcCPk-45" target="TyK7Ge3iMBHYcfCyNtOP-45">
          <mxGeometry relative="1" as="geometry" />
        </mxCell>
        <mxCell id="fFUhXE5g0Uw-F75FcCPk-45" value="" style="shape=trapezoid;perimeter=trapezoidPerimeter;whiteSpace=wrap;html=1;fixedSize=1;rotation=90;" vertex="1" parent="1">
          <mxGeometry x="540" y="345" width="50" height="25" as="geometry" />
        </mxCell>
        <mxCell id="fFUhXE5g0Uw-F75FcCPk-46" value="BTNC" style="endArrow=classic;html=1;rounded=0;" edge="1" parent="1">
          <mxGeometry width="50" height="50" relative="1" as="geometry">
            <mxPoint x="564.8" y="425" as="sourcePoint" />
            <mxPoint x="564.8" y="370" as="targetPoint" />
          </mxGeometry>
        </mxCell>
        <mxCell id="fFUhXE5g0Uw-F75FcCPk-47" value="0" style="text;html=1;strokeColor=none;fillColor=none;align=center;verticalAlign=middle;whiteSpace=wrap;rounded=0;" vertex="1" parent="1">
          <mxGeometry x="550" y="345" width="10" height="10" as="geometry" />
        </mxCell>
        <mxCell id="fFUhXE5g0Uw-F75FcCPk-48" value="1" style="text;html=1;strokeColor=none;fillColor=none;align=center;verticalAlign=middle;whiteSpace=wrap;rounded=0;" vertex="1" parent="1">
          <mxGeometry x="550" y="365" width="10" height="10" as="geometry" />
        </mxCell>
        <mxCell id="fFUhXE5g0Uw-F75FcCPk-50" value="0000" style="endArrow=classic;html=1;rounded=0;entryX=0.25;entryY=1;entryDx=0;entryDy=0;" edge="1" target="fFUhXE5g0Uw-F75FcCPk-52" parent="1">
          <mxGeometry width="50" height="50" relative="1" as="geometry">
            <mxPoint x="210" y="560" as="sourcePoint" />
            <mxPoint x="250" y="564.5" as="targetPoint" />
          </mxGeometry>
        </mxCell>
        <mxCell id="fFUhXE5g0Uw-F75FcCPk-51" value="AJH" style="endArrow=classic;html=1;rounded=0;entryX=0.65;entryY=1.1;entryDx=0;entryDy=0;entryPerimeter=0;" edge="1" target="fFUhXE5g0Uw-F75FcCPk-52" parent="1">
          <mxGeometry width="50" height="50" relative="1" as="geometry">
            <mxPoint x="210" y="580" as="sourcePoint" />
            <mxPoint x="250" y="585" as="targetPoint" />
          </mxGeometry>
        </mxCell>
        <mxCell id="fFUhXE5g0Uw-F75FcCPk-56" style="edgeStyle=orthogonalEdgeStyle;rounded=0;orthogonalLoop=1;jettySize=auto;html=1;exitX=0.5;exitY=0;exitDx=0;exitDy=0;entryX=0.008;entryY=0.155;entryDx=0;entryDy=0;entryPerimeter=0;fontSize=10;" edge="1" parent="1" source="fFUhXE5g0Uw-F75FcCPk-52" target="TyK7Ge3iMBHYcfCyNtOP-55">
          <mxGeometry relative="1" as="geometry" />
        </mxCell>
        <mxCell id="fFUhXE5g0Uw-F75FcCPk-52" value="" style="shape=trapezoid;perimeter=trapezoidPerimeter;whiteSpace=wrap;html=1;fixedSize=1;rotation=90;" vertex="1" parent="1">
          <mxGeometry x="250" y="560" width="50" height="25" as="geometry" />
        </mxCell>
        <mxCell id="fFUhXE5g0Uw-F75FcCPk-53" value="BTNC" style="endArrow=classic;html=1;rounded=0;" edge="1" parent="1">
          <mxGeometry width="50" height="50" relative="1" as="geometry">
            <mxPoint x="274.79999999999995" y="640" as="sourcePoint" />
            <mxPoint x="274.79999999999995" y="585" as="targetPoint" />
          </mxGeometry>
        </mxCell>
        <mxCell id="fFUhXE5g0Uw-F75FcCPk-54" value="0" style="text;html=1;strokeColor=none;fillColor=none;align=center;verticalAlign=middle;whiteSpace=wrap;rounded=0;" vertex="1" parent="1">
          <mxGeometry x="260" y="560" width="10" height="10" as="geometry" />
        </mxCell>
        <mxCell id="fFUhXE5g0Uw-F75FcCPk-55" value="1" style="text;html=1;strokeColor=none;fillColor=none;align=center;verticalAlign=middle;whiteSpace=wrap;rounded=0;" vertex="1" parent="1">
          <mxGeometry x="260" y="580" width="10" height="10" as="geometry" />
        </mxCell>
        <mxCell id="fFUhXE5g0Uw-F75FcCPk-65" value="0000" style="endArrow=classic;html=1;rounded=0;entryX=0.25;entryY=1;entryDx=0;entryDy=0;" edge="1" target="fFUhXE5g0Uw-F75FcCPk-67" parent="1">
          <mxGeometry width="50" height="50" relative="1" as="geometry">
            <mxPoint x="500" y="545" as="sourcePoint" />
            <mxPoint x="540" y="549.5" as="targetPoint" />
          </mxGeometry>
        </mxCell>
        <mxCell id="fFUhXE5g0Uw-F75FcCPk-66" value="AJTH" style="endArrow=classic;html=1;rounded=0;entryX=0.65;entryY=1.1;entryDx=0;entryDy=0;entryPerimeter=0;" edge="1" target="fFUhXE5g0Uw-F75FcCPk-67" parent="1">
          <mxGeometry width="50" height="50" relative="1" as="geometry">
            <mxPoint x="500" y="565" as="sourcePoint" />
            <mxPoint x="540" y="570" as="targetPoint" />
          </mxGeometry>
        </mxCell>
        <mxCell id="fFUhXE5g0Uw-F75FcCPk-71" style="edgeStyle=orthogonalEdgeStyle;rounded=0;orthogonalLoop=1;jettySize=auto;html=1;exitX=0.5;exitY=0;exitDx=0;exitDy=0;entryX=-0.027;entryY=0.105;entryDx=0;entryDy=0;entryPerimeter=0;fontSize=10;" edge="1" parent="1" source="fFUhXE5g0Uw-F75FcCPk-67" target="TyK7Ge3iMBHYcfCyNtOP-50">
          <mxGeometry relative="1" as="geometry" />
        </mxCell>
        <mxCell id="fFUhXE5g0Uw-F75FcCPk-67" value="" style="shape=trapezoid;perimeter=trapezoidPerimeter;whiteSpace=wrap;html=1;fixedSize=1;rotation=90;" vertex="1" parent="1">
          <mxGeometry x="540" y="545" width="50" height="25" as="geometry" />
        </mxCell>
        <mxCell id="fFUhXE5g0Uw-F75FcCPk-68" value="BTNC" style="endArrow=classic;html=1;rounded=0;" edge="1" parent="1">
          <mxGeometry width="50" height="50" relative="1" as="geometry">
            <mxPoint x="564.8" y="625" as="sourcePoint" />
            <mxPoint x="564.8" y="570" as="targetPoint" />
          </mxGeometry>
        </mxCell>
        <mxCell id="fFUhXE5g0Uw-F75FcCPk-69" value="0" style="text;html=1;strokeColor=none;fillColor=none;align=center;verticalAlign=middle;whiteSpace=wrap;rounded=0;" vertex="1" parent="1">
          <mxGeometry x="550" y="545" width="10" height="10" as="geometry" />
        </mxCell>
        <mxCell id="fFUhXE5g0Uw-F75FcCPk-70" value="1" style="text;html=1;strokeColor=none;fillColor=none;align=center;verticalAlign=middle;whiteSpace=wrap;rounded=0;" vertex="1" parent="1">
          <mxGeometry x="550" y="565" width="10" height="10" as="geometry" />
        </mxCell>
      </root>
    </mxGraphModel>
  </diagram>
  <diagram id="7pLDN3yAHo9mc6JoqiHu" name="Overall Circuit">
    <mxGraphModel dx="2942" dy="1104" grid="1" gridSize="10" guides="1" tooltips="1" connect="1" arrows="1" fold="1" page="1" pageScale="1" pageWidth="1169" pageHeight="1654" math="0" shadow="0">
      <root>
        <mxCell id="0" />
        <mxCell id="1" parent="0" />
        <mxCell id="4m8-O2bLe5X1Gz8ePcru-19" style="edgeStyle=orthogonalEdgeStyle;rounded=0;orthogonalLoop=1;jettySize=auto;html=1;exitX=0.5;exitY=0;exitDx=0;exitDy=0;entryX=0.5;entryY=1;entryDx=0;entryDy=0;fontSize=10;" edge="1" parent="1" source="4m8-O2bLe5X1Gz8ePcru-1" target="4m8-O2bLe5X1Gz8ePcru-18">
          <mxGeometry relative="1" as="geometry" />
        </mxCell>
        <mxCell id="4m8-O2bLe5X1Gz8ePcru-1" value="" style="shape=trapezoid;perimeter=trapezoidPerimeter;whiteSpace=wrap;html=1;fixedSize=1;fontSize=10;" vertex="1" parent="1">
          <mxGeometry x="250" y="400" width="320" height="60" as="geometry" />
        </mxCell>
        <mxCell id="4m8-O2bLe5X1Gz8ePcru-2" value="ATH" style="endArrow=classic;html=1;rounded=0;fontSize=10;" edge="1" parent="1">
          <mxGeometry width="50" height="50" relative="1" as="geometry">
            <mxPoint x="270" y="530" as="sourcePoint" />
            <mxPoint x="270" y="460" as="targetPoint" />
          </mxGeometry>
        </mxCell>
        <mxCell id="4m8-O2bLe5X1Gz8ePcru-3" value="AH" style="endArrow=classic;html=1;rounded=0;fontSize=10;" edge="1" parent="1">
          <mxGeometry width="50" height="50" relative="1" as="geometry">
            <mxPoint x="310" y="530" as="sourcePoint" />
            <mxPoint x="310" y="460" as="targetPoint" />
          </mxGeometry>
        </mxCell>
        <mxCell id="4m8-O2bLe5X1Gz8ePcru-4" value="ATM" style="endArrow=classic;html=1;rounded=0;fontSize=10;" edge="1" parent="1">
          <mxGeometry width="50" height="50" relative="1" as="geometry">
            <mxPoint x="350" y="530" as="sourcePoint" />
            <mxPoint x="350" y="460" as="targetPoint" />
          </mxGeometry>
        </mxCell>
        <mxCell id="4m8-O2bLe5X1Gz8ePcru-5" value="AM" style="endArrow=classic;html=1;rounded=0;fontSize=10;" edge="1" parent="1">
          <mxGeometry width="50" height="50" relative="1" as="geometry">
            <mxPoint x="390" y="530" as="sourcePoint" />
            <mxPoint x="390" y="460" as="targetPoint" />
          </mxGeometry>
        </mxCell>
        <mxCell id="4m8-O2bLe5X1Gz8ePcru-6" value="CTH" style="endArrow=classic;html=1;rounded=0;fontSize=10;" edge="1" parent="1">
          <mxGeometry width="50" height="50" relative="1" as="geometry">
            <mxPoint x="430" y="530" as="sourcePoint" />
            <mxPoint x="430" y="460" as="targetPoint" />
          </mxGeometry>
        </mxCell>
        <mxCell id="4m8-O2bLe5X1Gz8ePcru-7" value="CH" style="endArrow=classic;html=1;rounded=0;fontSize=10;" edge="1" parent="1">
          <mxGeometry width="50" height="50" relative="1" as="geometry">
            <mxPoint x="470" y="530" as="sourcePoint" />
            <mxPoint x="470" y="460" as="targetPoint" />
          </mxGeometry>
        </mxCell>
        <mxCell id="4m8-O2bLe5X1Gz8ePcru-8" value="CTM" style="endArrow=classic;html=1;rounded=0;fontSize=10;" edge="1" parent="1">
          <mxGeometry width="50" height="50" relative="1" as="geometry">
            <mxPoint x="510" y="530" as="sourcePoint" />
            <mxPoint x="510" y="460" as="targetPoint" />
          </mxGeometry>
        </mxCell>
        <mxCell id="4m8-O2bLe5X1Gz8ePcru-9" value="CM" style="endArrow=classic;html=1;rounded=0;fontSize=10;" edge="1" parent="1">
          <mxGeometry width="50" height="50" relative="1" as="geometry">
            <mxPoint x="550" y="530" as="sourcePoint" />
            <mxPoint x="550" y="460" as="targetPoint" />
          </mxGeometry>
        </mxCell>
        <mxCell id="4m8-O2bLe5X1Gz8ePcru-10" value="Mode" style="endArrow=classic;html=1;rounded=0;fontSize=10;" edge="1" parent="1">
          <mxGeometry width="50" height="50" relative="1" as="geometry">
            <mxPoint x="610" y="420" as="sourcePoint" />
            <mxPoint x="560" y="420" as="targetPoint" />
          </mxGeometry>
        </mxCell>
        <mxCell id="4m8-O2bLe5X1Gz8ePcru-11" value="Sel" style="endArrow=classic;html=1;rounded=0;fontSize=10;" edge="1" parent="1">
          <mxGeometry width="50" height="50" relative="1" as="geometry">
            <mxPoint x="640" y="440" as="sourcePoint" />
            <mxPoint x="560" y="440" as="targetPoint" />
          </mxGeometry>
        </mxCell>
        <mxCell id="4m8-O2bLe5X1Gz8ePcru-12" value="2-bit counter" style="whiteSpace=wrap;html=1;aspect=fixed;fontSize=10;" vertex="1" parent="1">
          <mxGeometry x="640" y="430" width="80" height="80" as="geometry" />
        </mxCell>
        <mxCell id="4m8-O2bLe5X1Gz8ePcru-13" value="" style="triangle;whiteSpace=wrap;html=1;fontSize=10;rotation=-90;" vertex="1" parent="1">
          <mxGeometry x="670" y="490" width="20" height="20" as="geometry" />
        </mxCell>
        <mxCell id="4m8-O2bLe5X1Gz8ePcru-15" style="edgeStyle=orthogonalEdgeStyle;rounded=0;orthogonalLoop=1;jettySize=auto;html=1;exitX=0;exitY=0.25;exitDx=0;exitDy=0;entryX=0;entryY=0.5;entryDx=0;entryDy=0;fontSize=10;" edge="1" parent="1" source="4m8-O2bLe5X1Gz8ePcru-14" target="4m8-O2bLe5X1Gz8ePcru-13">
          <mxGeometry relative="1" as="geometry" />
        </mxCell>
        <mxCell id="4m8-O2bLe5X1Gz8ePcru-14" value="100 Hz Clock divider" style="whiteSpace=wrap;html=1;aspect=fixed;fontSize=10;" vertex="1" parent="1">
          <mxGeometry x="780" y="430" width="80" height="80" as="geometry" />
        </mxCell>
        <mxCell id="4m8-O2bLe5X1Gz8ePcru-16" value="Clock" style="endArrow=classic;html=1;rounded=0;fontSize=10;" edge="1" parent="1">
          <mxGeometry width="50" height="50" relative="1" as="geometry">
            <mxPoint x="930" y="450" as="sourcePoint" />
            <mxPoint x="860" y="450" as="targetPoint" />
          </mxGeometry>
        </mxCell>
        <mxCell id="4m8-O2bLe5X1Gz8ePcru-21" style="edgeStyle=orthogonalEdgeStyle;rounded=0;orthogonalLoop=1;jettySize=auto;html=1;exitX=0.5;exitY=0;exitDx=0;exitDy=0;entryX=0.426;entryY=1.011;entryDx=0;entryDy=0;entryPerimeter=0;fontSize=10;" edge="1" parent="1" source="4m8-O2bLe5X1Gz8ePcru-18" target="4m8-O2bLe5X1Gz8ePcru-20">
          <mxGeometry relative="1" as="geometry" />
        </mxCell>
        <mxCell id="4m8-O2bLe5X1Gz8ePcru-24" style="edgeStyle=orthogonalEdgeStyle;rounded=0;orthogonalLoop=1;jettySize=auto;html=1;exitX=0.5;exitY=0;exitDx=0;exitDy=0;entryX=0.501;entryY=1.032;entryDx=0;entryDy=0;entryPerimeter=0;fontSize=10;" edge="1" parent="1" source="4m8-O2bLe5X1Gz8ePcru-18" target="4m8-O2bLe5X1Gz8ePcru-22">
          <mxGeometry relative="1" as="geometry" />
        </mxCell>
        <mxCell id="4m8-O2bLe5X1Gz8ePcru-26" style="edgeStyle=orthogonalEdgeStyle;rounded=0;orthogonalLoop=1;jettySize=auto;html=1;exitX=0.5;exitY=0;exitDx=0;exitDy=0;entryX=0.476;entryY=1.032;entryDx=0;entryDy=0;entryPerimeter=0;fontSize=10;" edge="1" parent="1" source="4m8-O2bLe5X1Gz8ePcru-18" target="4m8-O2bLe5X1Gz8ePcru-25">
          <mxGeometry relative="1" as="geometry">
            <Array as="points">
              <mxPoint x="410" y="250" />
              <mxPoint x="508" y="250" />
            </Array>
          </mxGeometry>
        </mxCell>
        <mxCell id="4m8-O2bLe5X1Gz8ePcru-28" style="edgeStyle=orthogonalEdgeStyle;rounded=0;orthogonalLoop=1;jettySize=auto;html=1;exitX=0.5;exitY=0;exitDx=0;exitDy=0;entryX=0.388;entryY=1.011;entryDx=0;entryDy=0;entryPerimeter=0;fontSize=10;" edge="1" parent="1" source="4m8-O2bLe5X1Gz8ePcru-18" target="4m8-O2bLe5X1Gz8ePcru-27">
          <mxGeometry relative="1" as="geometry" />
        </mxCell>
        <mxCell id="4m8-O2bLe5X1Gz8ePcru-18" value="BCD to 7 segment decoder" style="whiteSpace=wrap;html=1;aspect=fixed;fontSize=10;" vertex="1" parent="1">
          <mxGeometry x="370" y="270" width="80" height="80" as="geometry" />
        </mxCell>
        <mxCell id="4m8-O2bLe5X1Gz8ePcru-20" value="" style="verticalLabelPosition=bottom;shadow=0;dashed=0;align=center;html=1;verticalAlign=top;shape=mxgraph.electrical.opto_electronics.7_segment_display_with_dp;pointerEvents=1;fontSize=10;" vertex="1" parent="1">
          <mxGeometry x="260" y="140" width="79.8" height="96.9" as="geometry" />
        </mxCell>
        <mxCell id="4m8-O2bLe5X1Gz8ePcru-22" value="" style="verticalLabelPosition=bottom;shadow=0;dashed=0;align=center;html=1;verticalAlign=top;shape=mxgraph.electrical.opto_electronics.7_segment_display_with_dp;pointerEvents=1;fontSize=10;" vertex="1" parent="1">
          <mxGeometry x="370" y="140" width="79.8" height="96.9" as="geometry" />
        </mxCell>
        <mxCell id="4m8-O2bLe5X1Gz8ePcru-25" value="" style="verticalLabelPosition=bottom;shadow=0;dashed=0;align=center;html=1;verticalAlign=top;shape=mxgraph.electrical.opto_electronics.7_segment_display_with_dp;pointerEvents=1;fontSize=10;" vertex="1" parent="1">
          <mxGeometry x="470" y="140" width="79.8" height="96.9" as="geometry" />
        </mxCell>
        <mxCell id="4m8-O2bLe5X1Gz8ePcru-27" value="" style="verticalLabelPosition=bottom;shadow=0;dashed=0;align=center;html=1;verticalAlign=top;shape=mxgraph.electrical.opto_electronics.7_segment_display_with_dp;pointerEvents=1;fontSize=10;" vertex="1" parent="1">
          <mxGeometry x="570" y="140" width="79.8" height="96.9" as="geometry" />
        </mxCell>
        <mxCell id="4m8-O2bLe5X1Gz8ePcru-31" style="edgeStyle=orthogonalEdgeStyle;rounded=0;orthogonalLoop=1;jettySize=auto;html=1;exitX=0.5;exitY=0;exitDx=0;exitDy=0;entryX=0.589;entryY=-0.01;entryDx=0;entryDy=0;entryPerimeter=0;fontSize=10;" edge="1" parent="1" source="4m8-O2bLe5X1Gz8ePcru-30" target="4m8-O2bLe5X1Gz8ePcru-27">
          <mxGeometry relative="1" as="geometry" />
        </mxCell>
        <mxCell id="4m8-O2bLe5X1Gz8ePcru-32" style="edgeStyle=orthogonalEdgeStyle;rounded=0;orthogonalLoop=1;jettySize=auto;html=1;exitX=0.5;exitY=0;exitDx=0;exitDy=0;entryX=0.539;entryY=-0.01;entryDx=0;entryDy=0;entryPerimeter=0;fontSize=10;" edge="1" parent="1" source="4m8-O2bLe5X1Gz8ePcru-30" target="4m8-O2bLe5X1Gz8ePcru-25">
          <mxGeometry relative="1" as="geometry" />
        </mxCell>
        <mxCell id="4m8-O2bLe5X1Gz8ePcru-33" style="edgeStyle=orthogonalEdgeStyle;rounded=0;orthogonalLoop=1;jettySize=auto;html=1;exitX=0.5;exitY=0;exitDx=0;exitDy=0;entryX=0.564;entryY=-0.01;entryDx=0;entryDy=0;entryPerimeter=0;fontSize=10;" edge="1" parent="1" source="4m8-O2bLe5X1Gz8ePcru-30" target="4m8-O2bLe5X1Gz8ePcru-22">
          <mxGeometry relative="1" as="geometry" />
        </mxCell>
        <mxCell id="4m8-O2bLe5X1Gz8ePcru-34" style="edgeStyle=orthogonalEdgeStyle;rounded=0;orthogonalLoop=1;jettySize=auto;html=1;exitX=0.5;exitY=0;exitDx=0;exitDy=0;entryX=0.526;entryY=0.01;entryDx=0;entryDy=0;entryPerimeter=0;fontSize=10;" edge="1" parent="1" source="4m8-O2bLe5X1Gz8ePcru-30" target="4m8-O2bLe5X1Gz8ePcru-20">
          <mxGeometry relative="1" as="geometry" />
        </mxCell>
        <mxCell id="4m8-O2bLe5X1Gz8ePcru-30" value="2x4 decoder" style="whiteSpace=wrap;html=1;aspect=fixed;fontSize=10;" vertex="1" parent="1">
          <mxGeometry x="655" y="260" width="50" height="50" as="geometry" />
        </mxCell>
        <mxCell id="4m8-O2bLe5X1Gz8ePcru-35" value="" style="endArrow=classic;html=1;rounded=0;fontSize=10;entryX=0.5;entryY=1;entryDx=0;entryDy=0;" edge="1" parent="1" target="4m8-O2bLe5X1Gz8ePcru-30">
          <mxGeometry width="50" height="50" relative="1" as="geometry">
            <mxPoint x="620" y="440" as="sourcePoint" />
            <mxPoint x="620" y="340" as="targetPoint" />
            <Array as="points">
              <mxPoint x="620" y="420" />
              <mxPoint x="620" y="390" />
              <mxPoint x="680" y="390" />
            </Array>
          </mxGeometry>
        </mxCell>
        <mxCell id="4m8-O2bLe5X1Gz8ePcru-38" style="edgeStyle=orthogonalEdgeStyle;rounded=0;orthogonalLoop=1;jettySize=auto;html=1;exitX=0;exitY=0.25;exitDx=0;exitDy=0;fontSize=10;" edge="1" parent="1" source="4m8-O2bLe5X1Gz8ePcru-36">
          <mxGeometry relative="1" as="geometry">
            <mxPoint x="430" y="530" as="targetPoint" />
          </mxGeometry>
        </mxCell>
        <mxCell id="4m8-O2bLe5X1Gz8ePcru-40" style="edgeStyle=orthogonalEdgeStyle;rounded=0;orthogonalLoop=1;jettySize=auto;html=1;exitX=0;exitY=0.5;exitDx=0;exitDy=0;fontSize=10;" edge="1" parent="1" source="4m8-O2bLe5X1Gz8ePcru-36">
          <mxGeometry relative="1" as="geometry">
            <mxPoint x="470" y="530" as="targetPoint" />
          </mxGeometry>
        </mxCell>
        <mxCell id="4m8-O2bLe5X1Gz8ePcru-42" style="edgeStyle=orthogonalEdgeStyle;rounded=0;orthogonalLoop=1;jettySize=auto;html=1;exitX=0;exitY=0.75;exitDx=0;exitDy=0;fontSize=10;" edge="1" parent="1" source="4m8-O2bLe5X1Gz8ePcru-36">
          <mxGeometry relative="1" as="geometry">
            <mxPoint x="510" y="530" as="targetPoint" />
          </mxGeometry>
        </mxCell>
        <mxCell id="4m8-O2bLe5X1Gz8ePcru-44" style="edgeStyle=orthogonalEdgeStyle;rounded=0;orthogonalLoop=1;jettySize=auto;html=1;exitX=0;exitY=1;exitDx=0;exitDy=0;fontSize=10;" edge="1" parent="1" source="4m8-O2bLe5X1Gz8ePcru-36">
          <mxGeometry relative="1" as="geometry">
            <mxPoint x="550" y="530" as="targetPoint" />
            <Array as="points">
              <mxPoint x="660" y="680" />
              <mxPoint x="660" y="700" />
              <mxPoint x="550" y="700" />
            </Array>
          </mxGeometry>
        </mxCell>
        <mxCell id="4m8-O2bLe5X1Gz8ePcru-36" value="Clock" style="whiteSpace=wrap;html=1;aspect=fixed;fontSize=10;" vertex="1" parent="1">
          <mxGeometry x="670" y="600" width="80" height="80" as="geometry" />
        </mxCell>
        <mxCell id="4m8-O2bLe5X1Gz8ePcru-45" value="" style="endArrow=classic;html=1;rounded=0;fontSize=10;entryX=1;entryY=0.25;entryDx=0;entryDy=0;" edge="1" parent="1" target="4m8-O2bLe5X1Gz8ePcru-36">
          <mxGeometry width="50" height="50" relative="1" as="geometry">
            <mxPoint x="880" y="450" as="sourcePoint" />
            <mxPoint x="880" y="640" as="targetPoint" />
            <Array as="points">
              <mxPoint x="880" y="540" />
              <mxPoint x="880" y="620" />
              <mxPoint x="800" y="620" />
            </Array>
          </mxGeometry>
        </mxCell>
        <mxCell id="WO5E8MjsEpOzTsUkVLVB-1" value="AJTH" style="endArrow=classic;html=1;rounded=0;fontSize=10;" edge="1" parent="1">
          <mxGeometry width="50" height="50" relative="1" as="geometry">
            <mxPoint x="820" y="639.5" as="sourcePoint" />
            <mxPoint x="750" y="639.5" as="targetPoint" />
          </mxGeometry>
        </mxCell>
        <mxCell id="WO5E8MjsEpOzTsUkVLVB-2" value="AJH" style="endArrow=classic;html=1;rounded=0;fontSize=10;" edge="1" parent="1">
          <mxGeometry width="50" height="50" relative="1" as="geometry">
            <mxPoint x="820" y="649.5" as="sourcePoint" />
            <mxPoint x="750" y="649.5" as="targetPoint" />
          </mxGeometry>
        </mxCell>
        <mxCell id="WO5E8MjsEpOzTsUkVLVB-3" value="AJTM" style="endArrow=classic;html=1;rounded=0;fontSize=10;" edge="1" parent="1">
          <mxGeometry width="50" height="50" relative="1" as="geometry">
            <mxPoint x="820" y="659.5" as="sourcePoint" />
            <mxPoint x="750" y="659.5" as="targetPoint" />
          </mxGeometry>
        </mxCell>
        <mxCell id="WO5E8MjsEpOzTsUkVLVB-4" value="AJM" style="endArrow=classic;html=1;rounded=0;fontSize=10;" edge="1" parent="1">
          <mxGeometry width="50" height="50" relative="1" as="geometry">
            <mxPoint x="820" y="669.5" as="sourcePoint" />
            <mxPoint x="750" y="669.5" as="targetPoint" />
          </mxGeometry>
        </mxCell>
      </root>
    </mxGraphModel>
  </diagram>
</mxfile>
